With the voices of: James Cromwell, Matt Damon and Daniel Studi

De film volgt de avonturen van een wilde mustang hengst terwijl hij door het Westen van Amerika reist. Wanneer hij voor het eerst mensen tegenkomt ontwikkelt hij een opmerkelijke vriendschap met een jongen. Ook wordt hij verliefd op de mooie merrie Rain.

The mustang stallion Spirit grows up to proudly succeed his father as leader of the Cimarron herd in the unspoiled Wild West. When 'civilization' reaches Dakota territory, naive curiosity gets him caught by cowboys and sold to the US Cavalry. Its method of training by breaking a horse fails utterly on him. Just when the colonel intends to shoot Spirit, the equally indomitable captured young Lakota brave, Little Creek, escapes on his back. He also tricks him to a coral with his beloved mare, but shows respect and wins some trust. As the railroad arrives, the Indian village is wrecked and Spirit gets captured for use as a draft-horse. When the stallion realizes this project threatens his whole world, he escapes and unleashes the fury of a force of nature, ultimately teaming up with Little Creek.

English/Dutch Spoken

General:

Complete name                    : Spirit\Stallion of the Cimarron.avi
Format                           : AVI
Format/Info                      : Audio Video Interleave
File size                        : 1.43 GiB
Duration                         : 1h 20mn
Overall bit rate                 : 2 552 Kbps

Video:

Format                           : MPEG-4 Visual
Format profile                   : Simple@L1
Format settings, BVOP            : No
Format settings, QPel            : No
Format settings, GMC             : No warppoints
Format settings, Matrix          : Default (H.263)
Codec ID                         : DX50
Codec ID/Hint                    : DivX 5
Duration                         : 1h 20mn
Bit rate                         : 1 767 Kbps
Width                            : 720 pixels
Height                           : 304 pixels
Display aspect ratio             : 2.35:1
Frame rate                       : 25.000 fps
Color space                      : YUV
Chroma subsampling               : 4:2:0
Bit depth                        : 8 bits
Scan type                        : Progressive
Bits/(Pixel*Frame)               : 0.323
Stream size                      : 1 012 MiB (69%)
Writing library                  : Lavc52.0.0

Audio 1:

Format                           : AC-3
Format/Info                      : Audio Coding 3
Mode extension                   : CM (complete main)
Codec ID                         : 2000
Duration                         : 1h 20mn
Bit rate mode                    : Constant
Bit rate                         : 384 Kbps
Channel(s)                       : 6 channels
Channel positions                : Front: L C R, Side: L R, LFE
Sampling rate                    : 48.0 KHz
Bit depth                        : 16 bits
Stream size                      : 220 MiB (15%)
Alignment                        : Aligned on interleaves
Interleave, duration             : 32 ms (0.80 video frame)
Interleave, preload duration     : 1120 ms

Audio 2:

Format                           : AC-3
Format/Info                      : Audio Coding 3
Mode extension                   : CM (complete main)
Codec ID                         : 2000
Duration                         : 1h 20mn
Bit rate mode                    : Constant
Bit rate                         : 384 Kbps
Channel(s)                       : 6 channels
Channel positions                : Front: L C R, Side: L R, LFE
Sampling rate                    : 48.0 KHz
Bit depth                        : 16 bits
Stream size                      : 220 MiB (15%)
Alignment                        : Aligned on interleaves
Interleave, duration             : 32 ms (0.80 video frame)
Interleave, preload duration     : 1120 ms
